<?xml version="1.0" encoding="UTF-8" standalone="no"?>
<!-- Created with Inkscape (http://www.inkscape.org/) -->

<svg
   xmlns:dc="http://purl.org/dc/elements/1.1/"
   xmlns:cc="http://creativecommons.org/ns#"
   xmlns:rdf="http://www.w3.org/1999/02/22-rdf-syntax-ns#"
   xmlns:svg="http://www.w3.org/2000/svg"
   xmlns="http://www.w3.org/2000/svg"
   xmlns:sodipodi="http://sodipodi.sourceforge.net/DTD/sodipodi-0.dtd"
   xmlns:inkscape="http://www.inkscape.org/namespaces/inkscape"
   width="34.277977mm"
   height="29.634148mm"
   viewBox="0 0 121.4574 105.00289"
   id="svg2"
   version="1.1"
   inkscape:version="0.91 r13725"
   sodipodi:docname="FIRST Logo.svg">
  <defs
     id="defs4">
    <clipPath
       id="clipPath3380"
       clipPathUnits="userSpaceOnUse">
      <path
         inkscape:connector-curvature="0"
         id="path3382"
         d="m 0,1024 768,0 L 768,0 0,0 0,1024 Z" />
    </clipPath>
    <clipPath
       id="clipPath3404"
       clipPathUnits="userSpaceOnUse">
      <path
         inkscape:connector-curvature="0"
         id="path3406"
         d="m 0,1024 768,0 L 768,0 0,0 0,1024 Z" />
    </clipPath>
    <clipPath
       id="clipPath3536"
       clipPathUnits="userSpaceOnUse">
      <path
         inkscape:connector-curvature="0"
         id="path3538"
         d="m 290.556,147 189.131,0 0,129.776 -189.131,0 0,-129.776 z" />
    </clipPath>
  </defs>
  <sodipodi:namedview
     id="base"
     pagecolor="#ffffff"
     bordercolor="#666666"
     borderopacity="1.0"
     inkscape:pageopacity="0.0"
     inkscape:pageshadow="2"
     inkscape:zoom="3.3041727"
     inkscape:cx="64.966072"
     inkscape:cy="-0.52430365"
     inkscape:document-units="px"
     inkscape:current-layer="layer1"
     showgrid="false"
     fit-margin-top="1"
     fit-margin-left="0.4"
     fit-margin-right="0.4"
     fit-margin-bottom="1"
     inkscape:window-width="1366"
     inkscape:window-height="705"
     inkscape:window-x="-8"
     inkscape:window-y="-8"
     inkscape:window-maximized="1" />
  <metadata
     id="metadata7">
    <rdf:RDF>
      <cc:Work
         rdf:about="">
        <dc:format>image/svg+xml</dc:format>
        <dc:type
           rdf:resource="http://purl.org/dc/dcmitype/StillImage" />
        <dc:title></dc:title>
      </cc:Work>
    </rdf:RDF>
  </metadata>
  <g
     inkscape:label="Layer 1"
     inkscape:groupmode="layer"
     id="layer1"
     transform="translate(-86.226647,-938.70972)">
    <g
       transform="matrix(1.25,0,0,-1.25,144.93434,962.47003)"
       id="g3610">
      <path
         inkscape:connector-curvature="0"
         id="path3612"
         style="fill:#99989a;fill-opacity:1;fill-rule:nonzero;stroke:none"
         d="m 0,0 c 1.497,0 2.95,-0.137 4.338,-0.39 l 3.3,3.44 C 5.33,3.848 2.739,4.297 0,4.297 c -4.657,0 -8.885,-1.298 -12.02,-3.412 l 2.877,-2.726 C -6.484,-0.675 -3.354,0 0,0" />
    </g>
    <g
       transform="matrix(1.25,0,0,-1.25,144.93434,957.09878)"
       id="g3614">
      <path
         inkscape:connector-curvature="0"
         id="path3616"
         style="fill:#ffffff;fill-opacity:1;fill-rule:nonzero;stroke:none"
         d="m 0,0 c 2.739,0 5.33,-0.449 7.638,-1.247 l 3.589,3.736 C 7.878,3.809 4.059,4.559 0,4.559 c -6.05,0 -11.57,-1.666 -15.784,-4.405 l 3.764,-3.566 C -8.885,-1.298 -4.657,0 0,0" />
    </g>
    <g
       transform="matrix(1.25,0,0,-1.25,123.39472,975.37128)"
       id="g3618">
      <path
         inkscape:connector-curvature="0"
         id="path3620"
         style="fill:#99989a;fill-opacity:1;fill-rule:nonzero;stroke:none"
         d="M 0,0 C 0.302,1.233 0.859,2.403 1.628,3.484 L 0.182,4.945 C -0.105,4.047 -0.263,3.111 -0.263,2.148 -0.263,1.415 -0.172,0.699 0,0" />
    </g>
    <g
       transform="matrix(1.25,0,0,-1.25,110.04122,985.47765)"
       id="g3622">
      <path
         inkscape:connector-curvature="0"
         id="path3624"
         style="fill:#99989a;fill-opacity:1;fill-rule:nonzero;stroke:none"
         d="m 0,0 -0.607,-3.145 6.039,2.599 C 5.051,0.255 4.976,1.301 4.756,2.151 L 0,0 Z" />
    </g>
    <g
       transform="matrix(1.25,0,0,-1.25,104.72909,942.70328)"
       id="g3626">
      <path
         inkscape:connector-curvature="0"
         id="path3628"
         style="fill:#99989a;fill-opacity:1;fill-rule:nonzero;stroke:none"
         d="M 0,0 -8.74,-47.861 -4.606,-48.198 4.048,0.359 0,0 Z" />
    </g>
    <g
       transform="matrix(1.25,0,0,-1.25,141.46834,977.13053)"
       id="g3630">
      <path
         inkscape:connector-curvature="0"
         id="path3632"
         style="fill:#ed1d24;fill-opacity:1;fill-rule:nonzero;stroke:none"
         d="m 0,0 0,3.87 -6.348,6.018 -2.876,2.725 -3.765,3.567 -12.369,11.722 -8.657,-48.559 18.318,8.053 c -1.823,1.612 -3.116,3.33 -4.076,5.354 l -5.963,-2.56 0.598,3.131 3.864,20.14 0.322,1.69 3.191,-3.213 4.105,-4.134 1.762,-1.777 7.246,-6.241 -7.034,-3.223 c 1.827,-1.826 3.991,-3.432 6.908,-4.341 L 4.002,-3.837 0,0 Z" />
    </g>
    <g
       transform="matrix(1.25,0,0,-1.25,166.47259,975.37128)"
       id="g3634">
      <path
         inkscape:connector-curvature="0"
         id="path3636"
         style="fill:#99989a;fill-opacity:1;fill-rule:nonzero;stroke:none"
         d="m 0,0 c 0.171,0.699 0.264,1.415 0.264,2.148 0,2.162 -0.79,4.202 -2.15,5.975 L -3.97,5.965 C -1.969,4.3 -0.547,2.249 0,0" />
    </g>
    <g
       transform="matrix(1.25,0,0,-1.25,171.36934,1000.9785)"
       id="g3638">
      <path
         inkscape:connector-curvature="0"
         id="path3640"
         style="fill:#99989a;fill-opacity:1;fill-rule:nonzero;stroke:none"
         d="M 0,0 -4.938,4.744 C -5.728,4.204 -6.572,3.705 -7.456,3.245 L 0,-3.913 22.989,20.033 22.964,23.911 0,0 Z" />
    </g>
    <g
       transform="matrix(1.25,0,0,-1.25,150.42797,980.87603)"
       id="g3642">
      <path
         inkscape:connector-curvature="0"
         id="path3644"
         style="fill:#99989a;fill-opacity:1;fill-rule:nonzero;stroke:none"
         d="M 0,0 -4.067,3.906 -7.179,6.877 -7.19,2.996 -2.815,-1.206 1.368,-5.223 c 1.062,0.264 2.079,0.599 3.035,0.995 L 0,0 Z" />
    </g>
    <g
       transform="matrix(1.25,0,0,-1.25,170.40947,953.80703)"
       id="g3646">
      <path
         inkscape:connector-curvature="0"
         id="path3648"
         style="fill:#99989a;fill-opacity:1;fill-rule:nonzero;stroke:none"
         d="m 0,0 -3.273,-3.407 -3.61,-3.762 -2.461,-2.562 -4.663,-4.857 1.953,-1.874 4.962,5.166 2.075,2.16 3.801,3.958 L 0,-3.911 12.642,-16.029 14.597,-14 0,0 Z" />
    </g>
    <g
       transform="matrix(1.25,0,0,-1.25,168.88984,960.27928)"
       id="g3650">
      <path
         inkscape:connector-curvature="0"
         id="path3652"
         style="fill:#ffffff;fill-opacity:1;fill-rule:nonzero;stroke:none"
         d="m 0,0 -3.801,-3.958 c 1.36,-1.772 2.132,-3.805 2.132,-5.968 0,-0.733 -0.094,-1.449 -0.265,-2.148 -0.444,-1.819 -1.44,-3.504 -2.863,-4.962 -1.456,-1.492 -3.358,-2.748 -5.57,-3.669 -0.956,-0.396 -1.972,-0.731 -3.035,-0.995 -1.804,-0.447 -3.743,-0.695 -5.762,-0.695 -2.488,0 -4.851,0.371 -6.993,1.038 -2.918,0.909 -5.42,2.367 -7.248,4.194 -0.667,0.665 -1.243,1.379 -1.719,2.135 -0.586,0.93 -1.019,1.919 -1.272,2.954 -0.172,0.699 -0.263,1.415 -0.263,2.148 0,0.963 0.158,1.899 0.445,2.798 l -4.366,4.42 c -1.599,-2.371 -2.5,-5.042 -2.5,-7.872 0,-0.728 0.067,-1.445 0.182,-2.149 0.28,-1.711 0.893,-3.342 1.785,-4.866 0.448,-0.765 0.967,-1.502 1.552,-2.207 1.536,-1.853 3.516,-3.48 5.837,-4.799 4.031,-2.294 9.078,-3.661 14.56,-3.661 3.835,0 7.456,0.668 10.667,1.854 0.975,0.36 1.91,0.767 2.804,1.219 2.07,1.047 3.907,2.328 5.44,3.791 2.572,2.458 4.29,5.427 4.822,8.669 0.115,0.704 0.182,1.421 0.182,2.149 C 4.751,-6.612 2.984,-2.95 0,0" />
    </g>
    <g
       transform="matrix(1.25,0,0,-1.25,150.40185,980.9119)"
       id="g3654">
      <path
         inkscape:connector-curvature="0"
         id="path3656"
         style="fill:#0066b3;fill-opacity:1;fill-rule:nonzero;stroke:none"
         d="m 0,0 4.388,-4.214 c 2.209,0.921 4.128,2.162 5.586,3.655 l -6.016,5.777 -1.954,1.875 4.638,4.83 2.459,2.562 3.611,3.763 3.274,3.407 L 30.548,7.673 28.594,5.637 16.663,-6.786 c -1.256,-1.721 -2.886,-3.249 -4.813,-4.569 L 16.753,-16.084 39.743,7.859 15.799,30.849 6.832,21.51 3.243,17.773 -0.06,14.333 -7.158,6.906 0,0 Z" />
    </g>
    <g
       transform="matrix(1.25,0,0,-1.25,125.10847,979.21253)"
       id="g3658">
      <path
         inkscape:connector-curvature="0"
         id="path3660"
         style="fill:#99989a;fill-opacity:1;fill-rule:nonzero;stroke:none"
         d="m 0,0 c 0,0 0.115,-0.189 0.128,-0.21 0.351,-0.558 0.833,-1.07 1.29,-1.579 L 8.571,1.515 -7.866,16.823 -8.314,14.455 4.581,1.688 0,0 Z" />
    </g>
    <g
       transform="matrix(1.25,0,0,-1.25,174.82835,973.50415)"
       id="g3662">
      <path
         inkscape:connector-curvature="0"
         id="path3664"
         style="fill:#99989a;fill-opacity:1;fill-rule:nonzero;stroke:none"
         d="m 0,0 c 0,-0.728 -0.067,-1.445 -0.182,-2.149 -0.532,-3.242 -2.25,-6.211 -4.822,-8.669 -1.533,-1.463 -3.37,-2.744 -5.44,-3.791 -0.894,-0.452 -1.829,-0.859 -2.804,-1.219 -3.211,-1.186 -6.832,-1.855 -10.667,-1.855 -5.482,0 -10.529,1.368 -14.559,3.662 -2.322,1.319 -4.302,2.946 -5.838,4.799 -0.585,0.705 -1.104,1.441 -1.551,2.207 -0.892,1.524 -1.506,3.155 -1.785,4.866 -0.116,0.704 -0.183,1.421 -0.183,2.149 0,0.229 0.017,0.455 0.028,0.681 -0.002,0.012 -0.006,0.029 -0.007,0.04 -0.117,-0.705 -0.021,-4.292 -0.021,-5.02 0,-1.153 0.154,-2.279 0.439,-3.371 0.223,-0.852 0.528,-1.68 0.909,-2.481 0.96,-2.025 2.4,-3.881 4.225,-5.493 4.389,-3.871 10.977,-6.336 18.343,-6.336 5.112,0 9.843,1.19 13.731,3.208 0.883,0.459 1.723,0.961 2.512,1.5 1.927,1.319 3.559,2.868 4.816,4.59 C -1.035,-10.189 0,-7.333 0,-4.299 0,-3.658 0.055,-0.625 -0.007,0.58 -0.018,0.745 0,0.209 0,0" />
    </g>
    <g
       transform="matrix(1.25,0,0,-1.25,94.52772,1009.8597)"
       id="g3666">
      <path
         inkscape:connector-curvature="0"
         id="path3668"
         style="fill:#000000;fill-opacity:1;fill-rule:nonzero;stroke:none"
         d="m 0,0 16.367,0 -1.542,-6.302 -7.844,0 -0.776,-3.312 8.184,0 -1.425,-5.839 -8.077,0 -1.94,-8.296 -8.454,0 L 0,0 Z" />
    </g>
    <g
       transform="matrix(1.25,0,0,-1.25,117.76722,1009.8597)"
       id="g3670">
      <path
         inkscape:connector-curvature="0"
         id="path3672"
         style="fill:#000000;fill-opacity:1;fill-rule:nonzero;stroke:none"
         d="m 0,0 8.455,0 -5.507,-23.749 -8.455,0 L 0,0 Z" />
    </g>
    <g
       transform="matrix(1.25,0,0,-1.25,138.90572,1024.0137)"
       id="g3674">
      <path
         inkscape:connector-curvature="0"
         id="path3676"
         style="fill:#000000;fill-opacity:1;fill-rule:nonzero;stroke:none"
         d="m 0,0 c 2.715,0 4.615,1.603 4.615,3.881 0,1.211 -0.892,1.816 -2.637,1.816 -0.504,0 -0.776,-0.035 -1.319,-0.142 L -0.621,0.072 C -0.349,0.036 -0.31,0 0,0 m -6.244,11.181 0.543,0.071 c 2.715,0.32 6.089,0.534 7.951,0.534 3.102,0 5.507,-0.356 7.33,-1.104 2.327,-0.961 3.723,-3.062 3.723,-5.59 0,-2.172 -0.737,-4.237 -2.133,-5.839 C 9.967,-2.136 8.882,-2.812 6.632,-3.489 L 6.089,-3.667 c 0.233,-0.178 0.31,-0.25 0.427,-0.356 0.659,-0.748 2.637,-4.594 4.305,-8.403 l -9.308,0 c -1.203,3.382 -1.552,4.272 -3.142,8.118 l -1.861,-8.118 -8.223,0 5.469,23.607 z" />
    </g>
    <g
       transform="matrix(1.25,0,0,-1.25,180.62297,1009.8597)"
       id="g3678">
      <path
         inkscape:connector-curvature="0"
         id="path3680"
         style="fill:#000000;fill-opacity:1;fill-rule:nonzero;stroke:none"
         d="m 0,0 20.515,0 -1.433,-6.875 -6.089,0 -4.034,-16.874 -8.455,0 4.035,16.874 -6.6,0 L 0,0 Z" />
    </g>
    <g
       transform="matrix(1.25,0,0,-1.25,196.69897,1036.734)"
       id="g3682">
      <path
         inkscape:connector-curvature="0"
         id="path3684"
         style="fill:#000000;fill-opacity:1;fill-rule:nonzero;stroke:none"
         d="m 0,0 c 0.183,0 0.288,0.088 0.288,0.255 0,0.16 -0.096,0.248 -0.28,0.248 -0.04,0 -0.047,0 -0.088,-0.009 l 0,-0.486 C -0.048,0 -0.032,0 0,0 m -0.742,0.989 c 0.105,0.008 0.121,0.015 0.327,0.031 0.208,0.017 0.295,0.025 0.383,0.025 0.678,0 1.012,-0.264 1.012,-0.766 0,-0.303 -0.126,-0.486 -0.398,-0.59 L 0.55,-0.319 c 0.024,-0.016 0.032,-0.024 0.04,-0.039 0.072,-0.064 0.311,-0.423 0.511,-0.75 l -0.774,0 c -0.16,0.295 -0.207,0.375 -0.407,0.709 l 0,-0.709 -0.662,0 0,2.097 z m 0.798,-2.862 c 1.004,0 1.809,0.805 1.809,1.801 0,1.005 -0.805,1.81 -1.809,1.81 -0.996,0 -1.802,-0.805 -1.802,-1.802 0,-1.012 0.798,-1.809 1.802,-1.809 m 0,3.866 c 1.139,0 2.064,-0.917 2.064,-2.057 0,-1.148 -0.917,-2.065 -2.064,-2.065 -1.157,0 -2.058,0.902 -2.058,2.065 0,1.148 0.909,2.057 2.058,2.057" />
    </g>
    <g
       transform="matrix(1.25,0,0,-1.25,153.47197,1038.7918)"
       id="g3686">
      <path
         inkscape:connector-curvature="0"
         id="path3688"
         style="fill:#000000;fill-opacity:1;fill-rule:nonzero;stroke:none"
         d="m 0,0 c 2.377,-0.706 4.976,-1.102 7.405,-1.102 3.297,0 5.818,0.747 7.99,2.314 2.404,1.71 3.956,4.344 3.956,6.729 0,1.603 -0.698,3.063 -1.94,4.096 -0.97,0.783 -1.978,1.388 -4.033,2.349 L 11.71,15.17 c -0.543,0.285 -0.815,0.569 -0.815,0.89 0,0.854 1.086,1.495 2.56,1.495 1.103,0 2.417,-0.32 4.928,-1.141 l 1.733,6.428 c -1.878,0.511 -3.707,0.766 -5.536,0.766 -6.904,0 -12.217,-3.774 -12.217,-8.652 0,-2.563 1.707,-4.379 5.973,-6.374 C 10.352,7.657 10.702,7.407 10.702,6.767 10.702,5.806 9.654,5.2 7.948,5.2 6.435,5.2 4.496,5.663 1.859,6.624 L 1.856,6.623 0,0 Z" />
    </g>
  </g>
</svg>
